<svg width="32" height="32" viewBox="0 0 32 32" fill="none" xmlns="http://www.w3.org/2000/svg">
<g clip-path="url(#clip0_1198_568)">
<path d="M9.06691 9.59961C7.89359 9.59961 6.93359 10.5596 6.93359 11.7329C6.93359 12.9062 7.89359 13.8662 9.06691 13.8662C10.2402 13.8662 11.2002 12.9062 11.2002 11.7329C11.2002 10.5596 10.2402 9.59961 9.06691 9.59961Z" fill="#B71422"/>
<path d="M18.3998 5.6003C17.3332 5.22699 17.0665 3.78699 17.0665 2.66699H16.5332C15.3599 2.66699 14.3999 3.62699 14.3999 4.8003C14.3999 5.97362 15.3599 6.93362 16.5332 6.93362C17.1732 6.93362 17.6532 6.66693 17.9199 6.4003C17.9199 6.4003 18.5065 5.6003 18.3998 5.6003Z" fill="#B71422"/>
<path d="M9.6 21.333C8.69331 21.333 8 22.0263 8 22.933C8 23.8397 8.69331 24.533 9.6 24.533C10.5067 24.533 11.2 23.8397 11.2 22.933C11.2 22.0263 10.5067 21.333 9.6 21.333Z" fill="#B71422"/>
<path d="M31.7867 13.4933C31.7334 13.28 31.5734 13.12 31.36 13.0666C31.1466 13.0132 30.9333 13.1199 30.8267 13.2799C30.1334 14.2933 28.96 14.9333 27.7334 14.9333C26.4001 14.9333 25.1734 14.1866 24.4801 13.0666C24.3734 12.9066 24.1601 12.7999 23.9468 12.7999C23.7868 12.7999 23.6267 12.7999 23.4667 12.7999C20.8001 12.7999 18.6667 10.6666 18.6667 7.99988C18.6667 7.67987 18.7201 7.35987 18.7734 7.09319L18.6134 7.19987C18.0268 7.73319 17.2801 7.99988 16.5334 7.99988C14.7734 7.99988 13.3334 6.55987 13.3334 4.79987C13.3334 3.03987 14.7734 1.59987 16.5334 1.59987H17.2801C17.3868 1.38656 17.4934 1.11987 17.7068 0.959875C17.8135 0.799875 17.8668 0.586563 17.8135 0.426562C17.7602 0.266562 17.5468 0.106563 17.3868 0.106563C16.8533 0 16.4267 0 16 0C7.2 0 0 7.2 0 16C0 24.8 7.2 32 16 32C24.8 32 32 24.8 32 16C32 15.1467 31.9467 14.3467 31.7867 13.4933ZM9.6 25.6C8.10669 25.6 6.93331 24.4267 6.93331 22.9333C6.93331 21.4399 8.10663 20.2666 9.6 20.2666C11.0933 20.2666 12.2667 21.4399 12.2667 22.9333C12.2667 24.4267 11.0933 25.6 9.6 25.6ZM9.06669 14.9333C7.30669 14.9333 5.86669 13.4933 5.86669 11.7333C5.86669 9.97331 7.30669 8.53331 9.06669 8.53331C10.8267 8.53331 12.2667 9.97331 12.2667 11.7333C12.2667 13.4933 10.8267 14.9333 9.06669 14.9333ZM20.2667 27.2C17.92 27.2 16 25.28 16 22.9333C16 20.5866 17.92 18.6666 20.2667 18.6666C22.6134 18.6666 24.5334 20.5866 24.5334 22.9333C24.5334 25.28 22.6133 27.2 20.2667 27.2Z" fill="#B71422"/>
<path d="M20.2669 19.7334C18.5069 19.7334 17.0669 21.1734 17.0669 22.9334C17.0669 24.6934 18.5069 26.1334 20.2669 26.1334C22.0269 26.1334 23.4669 24.6934 23.4669 22.9334C23.4669 21.1734 22.0269 19.7334 20.2669 19.7334Z" fill="#B71422"/>
</g>
<defs>
<clipPath id="clip0_1198_568">
<rect width="32" height="32" fill="white"/>
</clipPath>
</defs>
</svg>
